<svg width="47" height="49" viewBox="0 0 47 49" fill="none" xmlns="http://www.w3.org/2000/svg">
<path d="M8.6192 10.9728C7.592 10.9728 6.6608 10.752 5.8256 10.3104C5 9.8592 4.3472 9.24 3.8672 8.4528C3.3968 7.656 3.1616 6.7584 3.1616 5.76C3.1616 4.7616 3.3968 3.8688 3.8672 3.0816C4.3472 2.2848 5 1.6656 5.8256 1.224C6.6608 0.772801 7.5968 0.547201 8.6336 0.547201C9.5072 0.547201 10.2944 0.700801 10.9952 1.008C11.7056 1.3152 12.3008 1.7568 12.7808 2.3328L11.2832 3.7152C10.6016 2.928 9.7568 2.5344 8.7488 2.5344C8.1248 2.5344 7.568 2.6736 7.0784 2.952C6.5888 3.2208 6.2048 3.6 5.9264 4.0896C5.6576 4.5792 5.5232 5.136 5.5232 5.76C5.5232 6.384 5.6576 6.9408 5.9264 7.4304C6.2048 7.92 6.5888 8.304 7.0784 8.5824C7.568 8.8512 8.1248 8.9856 8.7488 8.9856C9.7568 8.9856 10.6016 8.5872 11.2832 7.7904L12.7808 9.1728C12.3008 9.7584 11.7056 10.2048 10.9952 10.512C10.2848 10.8192 9.4928 10.9728 8.6192 10.9728Z" fill="#4D2907"/>
<path d="M17.9769 10.9152C17.1609 10.9152 16.4265 10.7472 15.7737 10.4112C15.1305 10.0656 14.6265 9.5904 14.2617 8.9856C13.8969 8.3808 13.7145 7.6944 13.7145 6.9264C13.7145 6.1584 13.8969 5.472 14.2617 4.8672C14.6265 4.2624 15.1305 3.792 15.7737 3.456C16.4265 3.1104 17.1609 2.9376 17.9769 2.9376C18.7929 2.9376 19.5225 3.1104 20.1657 3.456C20.8089 3.792 21.3129 4.2624 21.6777 4.8672C22.0425 5.472 22.2249 6.1584 22.2249 6.9264C22.2249 7.6944 22.0425 8.3808 21.6777 8.9856C21.3129 9.5904 20.8089 10.0656 20.1657 10.4112C19.5225 10.7472 18.7929 10.9152 17.9769 10.9152ZM17.9769 9.072C18.5529 9.072 19.0233 8.88 19.3881 8.496C19.7625 8.1024 19.9497 7.5792 19.9497 6.9264C19.9497 6.2736 19.7625 5.7552 19.3881 5.3712C19.0233 4.9776 18.5529 4.7808 17.9769 4.7808C17.4009 4.7808 16.9257 4.9776 16.5513 5.3712C16.1769 5.7552 15.9897 6.2736 15.9897 6.9264C15.9897 7.5792 16.1769 8.1024 16.5513 8.496C16.9257 8.88 17.4009 9.072 17.9769 9.072Z" fill="#4D2907"/>
<path d="M26.5489 3.2256H28.5361V4.9536H26.6065V10.8H24.3601V4.9536H23.1649V3.2256H24.3601V2.88C24.3601 1.9968 24.6193 1.296 25.1377 0.7776C25.6657 0.2592 26.4049 0 27.3553 0C27.6913 0 28.0081 0.0384001 28.3057 0.1152C28.6129 0.1824 28.8673 0.283201 29.0689 0.417601L28.4785 2.0448C28.2193 1.8624 27.9169 1.7712 27.5713 1.7712C26.8897 1.7712 26.5489 2.1456 26.5489 2.8944V3.2256Z" fill="#4D2907"/>
<path d="M32.4776 3.2256H34.4648V4.9536H32.5352V10.8H30.2888V4.9536H29.0936V3.2256H30.2888V2.88C30.2888 1.9968 30.548 1.296 31.0664 0.7776C31.5944 0.2592 32.3336 0 33.284 0C33.62 0 33.9368 0.0384001 34.2344 0.1152C34.5416 0.1824 34.796 0.283201 34.9976 0.417601L34.4072 2.0448C34.148 1.8624 33.8456 1.7712 33.5 1.7712C32.8184 1.7712 32.4776 2.1456 32.4776 2.8944V3.2256Z" fill="#4D2907"/>
<path d="M43.4343 6.9552C43.4343 6.984 43.4199 7.1856 43.3911 7.56H37.5303C37.6359 8.04 37.8855 8.4192 38.2791 8.6976C38.6727 8.976 39.1623 9.1152 39.7479 9.1152C40.1511 9.1152 40.5063 9.0576 40.8135 8.9424C41.1303 8.8176 41.4231 8.6256 41.6919 8.3664L42.8871 9.6624C42.1575 10.4976 41.0919 10.9152 39.6903 10.9152C38.8167 10.9152 38.0439 10.7472 37.3719 10.4112C36.6999 10.0656 36.1815 9.5904 35.8167 8.9856C35.4519 8.3808 35.2695 7.6944 35.2695 6.9264C35.2695 6.168 35.4471 5.4864 35.8023 4.8816C36.1671 4.2672 36.6615 3.792 37.2855 3.456C37.9191 3.1104 38.6247 2.9376 39.4023 2.9376C40.1607 2.9376 40.8471 3.1008 41.4615 3.4272C42.0759 3.7536 42.5559 4.224 42.9015 4.8384C43.2567 5.4432 43.4343 6.1488 43.4343 6.9552ZM39.4167 4.6368C38.9079 4.6368 38.4807 4.7808 38.1351 5.0688C37.7895 5.3568 37.5783 5.7504 37.5015 6.2496H41.3175C41.2407 5.76 41.0295 5.3712 40.6839 5.0832C40.3383 4.7856 39.9159 4.6368 39.4167 4.6368Z" fill="#4D2907"/>
<path fill-rule="evenodd" clip-rule="evenodd" d="M23.2778 17.6C17.5776 17.6 12.8469 18.5431 11.956 19.7788C10.9587 20.6293 10.468 22.0245 10.2874 23.445C10.0862 25.0267 10.2359 26.8681 10.7002 28.6559C11.1468 30.3752 11.918 32.151 13.034 33.616C9.52208 34.0852 6.57787 34.7005 4.40614 35.5317C3.1352 36.0182 2.05874 36.6043 1.28653 37.335C0.493864 38.0851 0 39.0135 0 40.1106C0 41.5485 0.921899 42.7385 2.16222 43.6641C3.42068 44.6033 5.17804 45.4066 7.2598 46.0637C11.435 47.3816 17.1413 48.181 23.4 48.181C29.6587 48.181 35.365 47.3816 39.5402 46.0637C41.6219 45.4066 43.3793 44.6033 44.6378 43.6641C45.8781 42.7385 46.8 41.5485 46.8 40.1106C46.8 38.9394 45.921 38.0797 45.0388 37.4865C44.1017 36.8563 42.8321 36.303 41.4277 35.8135C39.0924 34.9997 36.2179 34.3068 33.4788 33.7384C34.0456 33.0159 34.5263 32.2133 34.9235 31.3764C36.7247 31.3253 38.3902 30.8483 39.6555 30.0574C40.9821 29.2283 42 27.9548 42 26.381C42 24.9025 41.2334 23.6196 40.0087 22.7403C38.9205 21.959 37.4684 21.4863 35.7913 21.3966C35.4889 20.6883 35.0584 20.0694 34.4654 19.631C33.3227 18.4687 28.7485 17.6 23.2778 17.6ZM23.2674 22.801C27.6987 22.801 31.5442 22.231 33.4551 21.3966C33.7799 21.73 34.0678 22.2998 34.2405 23.1239C34.1766 23.1766 34.0888 23.2401 33.9683 23.3134C33.4999 23.5984 32.7505 23.8917 31.7226 24.1519C29.6822 24.6686 26.7695 25 23.4 25C20.0305 25 17.1178 24.6686 15.0773 24.1519C14.0495 23.8917 13.3001 23.5984 12.8317 23.3134C12.5257 23.1273 12.4299 23.0039 12.4032 22.9614C12.5746 22.2404 12.8376 21.7301 13.1326 21.4171C15.056 22.2403 18.8724 22.801 23.2674 22.801ZM32.5023 35.5797C32.6595 35.6328 32.8099 35.6876 32.9531 35.7441C33.4659 35.9464 33.9426 36.1921 34.3085 36.4995C34.6664 36.8001 35.0478 37.2744 35.0478 37.9226C35.0478 38.9475 34.1523 39.4568 33.5841 39.6907C32.9178 39.965 32.0273 40.1483 31.0308 40.2789C29.0174 40.5427 26.2759 40.6259 23.3037 40.6259C20.3315 40.6259 17.59 40.5427 15.5766 40.2789C14.5801 40.1483 13.6896 39.965 13.0233 39.6907C12.4551 39.4568 11.5596 38.9475 11.5596 37.9226C11.5596 37.2744 11.941 36.8001 12.2989 36.4995C12.6648 36.1921 13.1415 35.9464 13.6544 35.7441C13.9261 35.6369 14.224 35.5357 14.545 35.4409C10.5165 35.9225 7.3176 36.5588 5.12107 37.3996C3.9708 37.8398 3.16546 38.3105 2.66118 38.7877C2.17734 39.2456 2 39.6762 2 40.1106C2 40.625 2.3317 41.2951 3.35839 42.0613C4.36693 42.8139 5.88997 43.5341 7.86181 44.1565C11.7938 45.3976 17.2876 46.181 23.4 46.181C29.5124 46.181 35.0062 45.3976 38.9382 44.1565C40.91 43.5341 42.4331 42.8139 43.4416 42.0613C44.4683 41.2951 44.8 40.625 44.8 40.1106C44.8 40.0087 44.7036 39.6712 43.9227 39.1461C43.1967 38.6578 42.1157 38.1713 40.7696 37.7021C38.3937 36.8742 35.3793 36.1631 32.5023 35.5797ZM36.3282 23.5106C36.3335 23.4922 36.3385 23.4736 36.3433 23.455C37.4015 23.5974 38.2423 23.9342 38.8422 24.3649C39.6339 24.9333 40 25.6503 40 26.381C40 27.0164 39.5852 27.7429 38.5955 28.3614C37.854 28.8249 36.8616 29.1728 35.7212 29.3131C35.7885 29.0936 35.8504 28.8743 35.9072 28.6559C36.3651 26.8928 36.517 25.0774 36.3282 23.5106ZM34.3978 25.3461C33.7795 25.6352 33.0373 25.8822 32.2136 26.0907C29.9661 26.6598 26.8788 27 23.4 27C19.9212 27 16.8339 26.6598 14.5864 26.0907C13.6737 25.8596 12.8611 25.5813 12.2061 25.2509C12.2362 26.1697 12.3783 27.1611 12.636 28.1531C13.4783 31.3961 15.4114 34.1968 18.087 34.8112C18.5579 34.9194 18.8841 35.3487 18.8622 35.8313C18.8402 36.3139 18.4764 36.7118 17.9976 36.7768C16.4489 36.9869 15.2117 37.2797 14.3883 37.6045C14.1564 37.696 13.9748 37.7834 13.8365 37.862C14.2608 38.0271 14.9265 38.1766 15.8364 38.2958C17.7116 38.5415 20.3421 38.6259 23.3037 38.6259C26.2653 38.6259 28.8958 38.5415 30.771 38.2958C31.6809 38.1766 32.3466 38.0271 32.771 37.862C32.6327 37.7834 32.451 37.696 32.2191 37.6045C31.3957 37.2797 30.1585 36.9869 28.6098 36.7768C28.131 36.7118 27.7672 36.3139 27.7452 35.8313C27.7233 35.3487 28.0495 34.9194 28.5204 34.8112C31.196 34.1968 33.1291 31.3961 33.9714 28.1531C34.2202 27.1952 34.3613 26.238 34.3978 25.3461ZM12.3941 23H12.4C12.4 22.9918 12.3997 22.9845 12.3992 22.9782L12.3941 23ZM33.0921 38.0995C33.0921 38.0995 33.0904 38.0977 33.0881 38.094C33.0911 38.0977 33.0921 38.0995 33.0921 38.0995ZM33.1144 37.6897C33.1232 37.6787 33.1296 37.6737 33.1306 37.6739C33.1316 37.6741 33.1272 37.6795 33.1144 37.6897ZM13.4768 37.6739C13.4778 37.6737 13.4842 37.6788 13.493 37.6897C13.4802 37.6795 13.4758 37.6741 13.4768 37.6739ZM13.5193 38.0941C13.517 38.0977 13.5153 38.0995 13.5153 38.0995C13.5153 38.0995 13.5163 38.0977 13.5193 38.0941Z" fill="#4D2907"/>
</svg>
